<?xml version="1.0" standalone="no"?>
<!DOCTYPE svg PUBLIC "-//W3C//DTD SVG 1.1//EN" "http://www.w3.org/Graphics/SVG/1.1/DTD/svg11.dtd" >
<svg xmlns="http://www.w3.org/2000/svg" xmlns:xlink="http://www.w3.org/1999/xlink" version="1.1">
<metadata>
Created by FontForge 20200427 at Tue Sep 12 01:27:01 2017
 By www
-
</metadata>
<defs>
<font id="AbrilFatface-Regular" horiz-adv-x="530" >
  <font-face 
    font-family="Abril Fatface"
    font-weight="400"
    font-stretch="normal"
    units-per-em="1000"
    panose-1="2 0 5 3 0 0 0 2 0 3"
    ascent="800"
    descent="-200"
    x-height="476"
    cap-height="700"
    bbox="-150 -250 1009 918"
    underline-thickness="50"
    underline-position="-200"
    unicode-range="U+0020-00FE"
  />
<missing-glyph horiz-adv-x="364" 
d="M33 0v666h265v-666h-265zM66 33h199v600h-199v-600z" />
    <glyph glyph-name=".notdef" horiz-adv-x="364" 
d="M33 0v666h265v-666h-265zM66 33h199v600h-199v-600z" />
    <glyph glyph-name=".null" horiz-adv-x="0" 
 />
    <glyph glyph-name="nonmarkingreturn" horiz-adv-x="333" 
 />
    <glyph glyph-name="space" unicode=" " horiz-adv-x="180" 
 />
    <glyph glyph-name="exclam" unicode="!" horiz-adv-x="377" 
d="M200 178h-22v86q0 85 -32 205q-33 119 -33 161q0 41 22.5 61t58.5 20q76 0 76 -81q0 -45 -35 -164t-35 -203v-85zM186 -10q-36 0 -55.5 21t-19.5 55q0 33 20 54t55 21q36 0 56.5 -19t20.5 -54q0 -36 -20 -57t-57 -21z" />
    <glyph glyph-name="quotedbl" unicode="&#x22;" horiz-adv-x="334" 
d="M100 481h-21l-29 266q42 20 65 20q34 0 34 -37q0 -22 -9 -66zM248 481h-21l-29 266q42 20 65 20q34 0 34 -37q0 -22 -9 -66z" />
    <glyph glyph-name="numbersign" unicode="#" horiz-adv-x="608" 
d="M191 169l-28 -169h-25l27 169h-120l16 92h117l26 146h-120l15 93h117l21 140h26l-22 -140h172l21 140h26l-22 -140h128l-14 -93h-126l-24 -146h126l-14 -92h-124l-28 -169h-25l28 169h-174zM377 261l24 146h-172l-26 -146h174z" />
    <glyph glyph-name="dollar" unicode="$" horiz-adv-x="565" 
d="M258 770v-79l23 1q21 0 39 -3v81h28v-85q29 -7 51 -13q30 -10 47 -10q14 0 23 20h10l7 -197h-15q-62 120 -123 161v-206q88 -29 132.5 -78.5t44.5 -137.5q0 -93 -47.5 -154.5t-129.5 -75.5v-65h-28v62q-4 -1 -23 -1q-18 0 -39 3v-64h-28v67l-119 23q-16 0 -27 -29h-13
l-9 232h16q61 -134 152 -187v225q-83 29 -124 79.5t-41 132.5q0 85 44 142.5t121 72.5v83h28zM258 671v-204q42 -14 62 -18v212q-27 11 -42 11q-18 0 -20 -1zM155 573q0 -63 75 -95v189q-34 -10 -54.5 -35.5t-20.5 -58.5zM312 11h8v219q-24 10 -61 21h-1v-229q28 -11 54 -11
zM430 113q0 67 -82 106v-204q37 9 59.5 34.5t22.5 63.5z" />
    <glyph glyph-name="percent" unicode="%" horiz-adv-x="768" 
d="M198 373q-78 0 -123 46t-45 121q0 74 48.5 122.5t127.5 48.5q80 0 124 -43t44 -122t-48.5 -126t-127.5 -47zM195 0h-41l421 700h40zM160 654q-7 -38 -7 -114q0 -74 7 -110q4 -23 14 -32t29 -9t29 9.5t14 33.5q6 38 6 98q0 66 -1 81q-2 60 -20 76q-11 8 -28 8
q-19 0 -29 -9t-14 -32zM567 -10q-78 0 -123 46t-45 121q0 74 48.5 122.5t127.5 48.5q80 0 124 -43t44 -122t-48.5 -126t-127.5 -47zM529 271q-7 -39 -7 -114q0 -74 7 -110q4 -23 14 -32t29 -9t29 9.5t14 33.5q6 38 6 97q0 67 -1 82q-2 60 -20 76q-11 8 -28 8q-19 0 -29 -9
t-14 -32z" />
    <glyph glyph-name="ampersand" unicode="&#x26;" horiz-adv-x="822" 
d="M515 -226q47 0 74.5 46t27.5 117q0 69 -53 140q-76 -87 -209 -87q-137 0 -213.5 46.5t-76.5 140.5q0 68 37 109t120 59q-88 79 -88 175q0 91 64.5 141t167.5 50q97 0 147.5 -35.5t50.5 -97.5q0 -106 -161 -162q2 -1 73 -46q108 -70 157 -116q16 73 17 146h-79v20h174v-20
h-70q-1 -89 -19 -169q46 -52 66.5 -96t20.5 -107q0 -108 -76 -193t-173 -85q-64 0 -100.5 26.5t-36.5 69.5q0 41 23 65t60 24q80 0 80 -72q0 -15 -6 -36h-35q-18 -53 36 -53zM361 690q-41 0 -66.5 -24.5t-25.5 -73.5q0 -51 23.5 -83.5t92.5 -80.5q40 21 51.5 50.5t11.5 93.5
q0 118 -87 118zM379 16q107 0 168 82q-48 49 -129 104q-149 99 -182 128q-15 -32 -15 -130q0 -97 38.5 -140.5t119.5 -43.5z" />
    <glyph glyph-name="quotesingle" unicode="'" horiz-adv-x="186" 
d="M100 481h-21l-29 266q42 20 65 20q34 0 34 -37q0 -22 -9 -66z" />
    <glyph glyph-name="parenleft" unicode="(" horiz-adv-x="351" 
d="M128 -7q-78 142 -78 329q0 107 36.5 209t108.5 172q75 72 176 75v-20q-100 -4 -113 -133q-7 -66 -7 -179v-287q0 -191 31 -243q29 -51 89 -53v-21q-77 1 -141 41.5t-102 109.5z" />
    <glyph glyph-name="parenright" unicode=")" horiz-adv-x="351" 
d="M224 626q77 -140 77 -328q0 -107 -36.5 -209.5t-108.5 -171.5q-74 -73 -176 -76v20q100 4 113 133q7 66 7 179v287q0 191 -31 244q-29 51 -89 52v21q78 -1 142 -41.5t102 -109.5z" />
    <glyph glyph-name="asterisk" unicode="*" horiz-adv-x="529" 
d="M465 608l-183 -33l132 -35q32 -8 45 -22q9 -10 9 -26q0 -47 -68 -74l-129 143l45 -188q-34 -26 -60 -26q-55 0 -55 42q0 20 9 47l43 126l-124 -144q-29 10 -48.5 29.5t-19.5 42.5q0 22 14 32.5t48 19.5l119 33l-178 33q-4 15 -4 39q0 25 13 44t36 19q10 0 20 -5t14 -8.5
t21 -19.5l91 -87l-44 175q34 26 60 26q55 0 55 -42q0 -23 -13 -56l-39 -104l89 89q32 32 57 32q23 0 36 -18t13 -43q0 -26 -4 -41z" />
    <glyph glyph-name="plus" unicode="+" 
d="M492 334v-33h-211v-209h-38v209h-205v33h205v196h38v-196h211z" />
    <glyph glyph-name="comma" unicode="," horiz-adv-x="262" 
d="M86 -156l-12 15q61 52 80.5 81.5t19.5 66.5q0 35 -31 39l-48 -43q-26 9 -43 30t-17 52q0 33 24 55.5t65 22.5q42 0 67.5 -32t25.5 -85q0 -105 -131 -202z" />
    <glyph glyph-name="hyphen" unicode="-" horiz-adv-x="352" 
d="M302 278h-252v30h252v-30z" />
    <glyph glyph-name="period" unicode="." horiz-adv-x="265" 
d="M132 -10q-42 0 -64.5 24.5t-22.5 63.5q0 37 23 61.5t63 24.5q42 0 65.5 -21.5t23.5 -62.5q0 -43 -22.5 -66.5t-65.5 -23.5z" />
    <glyph glyph-name="slash" unicode="/" horiz-adv-x="351" 
d="M49 -97h-41l295 892h40z" />
    <glyph glyph-name="zero" unicode="0" horiz-adv-x="664" 
d="M327 -10q-144 0 -220.5 97t-76.5 275q0 173 79.5 261t223.5 88q145 0 223 -88.5t78 -271.5q0 -361 -307 -361zM235 388v-89q0 -105 2 -142.5t10 -77.5t27 -54t49 -14q48 0 65 16q23 19 29 48q10 45 11 87q2 86 2 129v88q0 193 -14 254q-15 57 -83 57t-83 -59t-15 -243z
" />
    <glyph glyph-name="one" unicode="1" horiz-adv-x="425" 
d="M127 19v655l-110 -14l-2 20l226 31h81v-692h78v-19h-378v19h105z" />
    <glyph glyph-name="two" unicode="2" horiz-adv-x="552" 
d="M35 558q0 69 59.5 111t172.5 42q117 0 179 -43.5t62 -128.5q0 -59 -27 -97q-39 -54 -91 -94q-65 -52 -126 -95l-77 -56l-61 -44h240q67 0 96.5 28.5t42.5 95.5h17l-10 -277h-470v116l101 93q104 95 146.5 168.5t42.5 161.5q0 87 -18.5 120t-64.5 33q-41 0 -61 -21
t-20 -46q0 -21 6 -37h30q8 -22 8 -50q0 -31 -25.5 -52t-65.5 -21t-63 26t-23 67z" />
    <glyph glyph-name="three" unicode="3" horiz-adv-x="573" 
d="M42 558q0 68 62 110.5t176 42.5q228 0 228 -159q0 -65 -53 -107.5t-154 -59.5v-2q121 -9 181.5 -57t60.5 -128q0 -96 -78 -152t-215 -56q-123 0 -183 60q-37 34 -37 84q0 49 23.5 76t64.5 27q40 0 64.5 -21t24.5 -51q0 -29 -8 -51h-31q-6 -16 -6 -33q0 -71 84 -71
q57 0 79.5 43t22.5 132q0 81 -19.5 120.5t-61.5 61.5q-44 -9 -87 -13l-3 22q87 9 115 41.5t28 118.5q0 85 -16 121t-56 36q-35 0 -53.5 -21.5t-18.5 -46.5q0 -21 6 -37h29q8 -22 8 -50q0 -31 -25.5 -52t-65.5 -21t-63 26t-23 67z" />
    <glyph glyph-name="four" unicode="4" horiz-adv-x="603" 
d="M529 0h-347v19h94v160h-271v19l282 502h173v-497h99v87h19v-185h-19v74h-99v-160h69v-19zM276 624l-239 -421h239v421z" />
    <glyph glyph-name="five" unicode="5" horiz-adv-x="540" 
d="M308 234q0 99 -17.5 135t-73.5 36q-59 0 -127 -43l-17 8v319l16 12q58 -9 183 -21.5t146 -12.5q19 0 27.5 9t14.5 33l15 -2q-15 -154 -39 -182q-14 -15 -33 -15q-18 0 -84 17l-218 57l-5 -194q74 39 151 39q150 0 210 -66q53 -59 53 -143q0 -107 -76.5 -168.5
t-210.5 -61.5q-71 0 -133 30q-74 39 -74 122q0 42 24 68.5t65 26.5t64.5 -20t23.5 -53q0 -34 -9 -56h-33q-6 -16 -6 -37q0 -24 18 -42.5t49 -18.5q54 0 76 36q10 16 14 47q6 47 6 141z" />
    <glyph glyph-name="six" unicode="6" horiz-adv-x="616" 
d="M34 308q0 191 86 297t238 106q101 0 157 -41t56 -109q0 -39 -25 -66t-64 -27t-63.5 21t-24.5 52q0 27 8 51h32q6 16 6 36q0 63 -71 63t-104 -73q-32 -72 -34 -254q53 81 151 81q101 0 157 -54.5t56 -159.5q0 -108 -75.5 -174.5t-200.5 -66.5q-285 0 -285 318zM331 412
q-32 0 -56 -24.5t-33 -60.5q-9 -35 -9 -90q0 -89 4 -128q3 -42 21 -72q17 -26 51 -26q35 0 52.5 13.5t25.5 45.5q12 46 12 117v93q-2 68 -9 87q-4 12 -12 25q-14 20 -47 20z" />
    <glyph glyph-name="seven" unicode="7" horiz-adv-x="510" 
d="M235 -10q-53 0 -84.5 29t-31.5 74q0 43 30 96q26 48 128 167l165 191h-256q-71 0 -93.5 -17.5t-35.5 -83.5h-16l11 254h448v-108l-111 -194q-75 -134 -94 -187q-21 -57 -21 -108t30 -94l-7 -12q-27 -7 -62 -7z" />
    <glyph glyph-name="eight" unicode="8" horiz-adv-x="611" 
d="M249 365v3q-96 5 -150.5 48.5t-54.5 112.5q0 85 68 133.5t195 48.5t194 -45t67 -124q0 -78 -51 -122.5t-147 -51.5v-3q216 -18 216 -183q0 -97 -68 -144.5t-210 -47.5q-283 0 -283 191q0 169 224 184zM308 690q-41 0 -55 -32t-14 -99q0 -68 1 -81q2 -57 16 -76
q16 -24 55 -24q63 0 65 81q1 25 1 99q0 68 -14 100t-55 32zM395 183q0 95 -18.5 133.5t-68.5 38.5q-51 0 -69.5 -39t-18.5 -134q0 -96 18 -133.5t70 -37.5t69.5 38t17.5 134z" />
    <glyph glyph-name="nine" unicode="9" horiz-adv-x="616" 
d="M584 393q0 -193 -84 -298t-235 -105q-104 0 -164 39.5t-60 104.5q0 41 25 70t65 29q39 0 63 -21t24 -51q0 -28 -8 -52h-30q-7 -14 -7 -38q0 -26 22.5 -43.5t62.5 -17.5q67 0 98 73q29 72 31 254q-53 -81 -158 -81q-91 0 -148.5 58.5t-57.5 158.5q0 116 77 177t206 61
q278 0 278 -318zM287 289q32 0 56 24.5t34 61.5q8 37 8 90q0 88 -3 128t-20 71q-15 26 -55 26q-44 0 -64 -32t-23 -104q-1 -17 -1 -67q0 -80 3 -114q3 -38 18 -64q14 -20 47 -20z" />
    <glyph glyph-name="colon" unicode=":" horiz-adv-x="265" 
d="M132 321q-42 0 -64.5 24.5t-22.5 63.5q0 37 23 61.5t63 24.5q42 0 65.5 -21.5t23.5 -62.5q0 -43 -22.5 -66.5t-65.5 -23.5zM132 -10q-42 0 -64.5 24.5t-22.5 63.5q0 37 23 61.5t63 24.5q42 0 65.5 -21.5t23.5 -62.5q0 -43 -22.5 -66.5t-65.5 -23.5z" />
    <glyph glyph-name="semicolon" unicode=";" horiz-adv-x="262" 
d="M123 321q-42 0 -64.5 24.5t-22.5 63.5q0 37 23 61.5t63 24.5q42 0 65.5 -21.5t23.5 -62.5q0 -43 -22.5 -66.5t-65.5 -23.5zM86 -156l-12 15q61 52 80.5 81.5t19.5 66.5q0 35 -31 39l-48 -43q-26 9 -43 30t-17 52q0 33 24 55.5t65 22.5q42 0 67.5 -32t25.5 -85
q0 -105 -131 -202z" />
    <glyph glyph-name="less" unicode="&#x3c;" 
d="M491 123v-37l-452 194v26l452 191v-35l-398 -168z" />
    <glyph glyph-name="equal" unicode="=" 
d="M38 346v33h454v-33h-454zM492 223v-33h-454v33h454z" />
    <glyph glyph-name="greater" unicode="&#x3e;" 
d="M39 460v37l452 -194v-26l-452 -191v35l398 170z" />
    <glyph glyph-name="question" unicode="?" horiz-adv-x="580" 
d="M58 558q0 67 60.5 110t167.5 43q110 0 169 -42.5t59 -123.5q0 -51 -24.5 -92.5t-75.5 -87.5l-151 -134v-58h-25v210q0 17 11 28l62 63q29 29 40 54.5t11 66.5q0 97 -90 97q-39 0 -61 -21.5t-22 -45.5q0 -21 6 -37h32q8 -22 8 -50q0 -31 -25.5 -52t-65.5 -21t-63 26
t-23 67zM249 -10q-36 0 -55.5 21t-19.5 55q0 33 20 54t55 21q36 0 56.5 -19t20.5 -54q0 -36 -20 -57t-57 -21z" />
    <glyph glyph-name="at" unicode="@" horiz-adv-x="879" 
d="M433 395q49 0 87 -37l17 30h109l-32 -182q-12 -72 -12 -109q0 -39 12.5 -57t44.5 -18q48 0 86 60.5t38 154.5q0 147 -85 230t-236 83q-155 0 -259.5 -104t-104.5 -272q0 -86 31 -153t85 -106q106 -74 245 -74q140 0 238 83l16 -18q-44 -41 -112.5 -65t-142.5 -24
q-157 0 -268 84q-120 91 -120 269q0 176 111 289t286 113q155 0 248.5 -87.5t93.5 -240.5q0 -124 -52 -187.5t-152 -63.5q-99 0 -128 72q-25 -70 -97 -70q-69 0 -108 43t-39 109q0 115 59.5 181.5t140.5 66.5zM481 130l34 214q-29 30 -62 30q-32 0 -54 -30t-32 -80
q-18 -86 -18 -167t51 -81q29 0 51 31.5t30 82.5z" />
    <glyph glyph-name="A" unicode="A" horiz-adv-x="694" 
d="M361 19h71l-73 216h-198l-77 -216h75v-19h-153v19h47l255 687h82l252 -687h46v-19h-327v19zM351 257l-87 262l-94 -262h181z" />
    <glyph glyph-name="B" unicode="B" horiz-adv-x="659" 
d="M21 681v19h299q142 0 210 -38.5t68 -125.5q0 -137 -165 -164v-2q200 -26 200 -174q0 -105 -79 -150.5t-239 -45.5h-294v19h65v662h-65zM313 681h-32v-308h26q51 0 72 30.5t21 97.5v47q0 75 -18.5 104t-68.5 29zM304 354h-23v-335h47q53 0 76 36.5t23 113.5v53
q0 68 -28 100t-95 32z" />
    <glyph glyph-name="C" unicode="C" horiz-adv-x="690" 
d="M400 691q-155 0 -155 -299v-79q0 -144 41.5 -223.5t120.5 -79.5q111 0 202 214h18l-7 -223h-11q-11 20 -25 20q-10 0 -73 -15q-61 -16 -128 -16q-165 0 -253.5 89t-88.5 264q0 174 92.5 271t252.5 97q62 0 120 -15q57 -16 68 -16q15 0 26 20h11l8 -217h-18
q-47 105 -94.5 156.5t-106.5 51.5z" />
    <glyph glyph-name="D" unicode="D" horiz-adv-x="755" 
d="M714 362q0 -196 -105.5 -279t-304.5 -83h-283v19h66v662h-66v19h309q195 0 289.5 -80t94.5 -258zM282 681v-662h38q101 0 144.5 71.5t43.5 239.5v58q0 224 -86 271q-40 22 -116 22h-24z" />
    <glyph glyph-name="E" unicode="E" horiz-adv-x="624" 
d="M21 678v22h520l10 -198h-18q-42 102 -88.5 139t-134.5 37h-35v-309h34q46 0 78.5 35t45.5 96h15v-296h-17q-18 75 -48.5 107t-83.5 32h-24v-321h38q90 0 155 54t90 142h20l-8 -218h-549v22h59v656h-59z" />
    <glyph glyph-name="F" unicode="F" horiz-adv-x="592" 
d="M21 678v22h520l10 -208h-18q-37 108 -85.5 147t-144.5 39h-28v-325h45q47 0 79.5 34.5t44.5 96.5h15v-296h-17q-16 74 -44.5 106.5t-77.5 32.5h-45v-305h124v-22h-378v22h59v656h-59z" />
    <glyph glyph-name="G" unicode="G" horiz-adv-x="723" 
d="M390 10q47 0 61.5 17t14.5 62v194h-64v22h288v-22h-39v-282h-15q-18 25 -51 25q-14 0 -83 -18q-70 -18 -119 -18q-165 0 -253.5 89t-88.5 264q0 174 92.5 271t252.5 97q62 0 123 -15q60 -16 71 -16q15 0 26 20h11l8 -217h-18q-52 103 -101.5 155.5t-107.5 52.5
q-153 0 -153 -299v-79q0 -148 38 -226q38 -77 107 -77z" />
    <glyph glyph-name="H" unicode="H" horiz-adv-x="749" 
d="M21 681v19h312v-19h-58v-310h199v310h-59v19h313v-19h-59v-662h59v-19h-313v19h59v326h-199v-326h58v-19h-312v19h59v662h-59z" />
    <glyph glyph-name="I" unicode="I" horiz-adv-x="355" 
d="M25 681v19h305v-19h-55v-662h55v-19h-305v19h55v662h-55z" />
    <glyph glyph-name="J" unicode="J" horiz-adv-x="517" 
d="M176 681v19h325v-19h-55v-432q0 -134 -60 -196t-184 -62q-82 0 -129 31t-47 87q0 43 24 67.5t66 24.5q40 0 61 -20t21 -51q0 -29 -11 -60h-39q-9 -15 -9 -28q0 -14 14 -23.5t35 -9.5q40 0 52 32q11 33 11 136v504h-75z" />
    <glyph glyph-name="K" unicode="K" horiz-adv-x="734" 
d="M25 681v19h305v-19h-55v-316l8 2l282 314h-79v19h175v-19h-60l-172 -192l240 -470h54v-19h-321v19h47l-165 319l-9 -2v-317h55v-19h-305v19h55v662h-55z" />
    <glyph glyph-name="L" unicode="L" horiz-adv-x="596" 
d="M21 678v22h360v-22h-106v-656h36q81 0 132 48.5t106 163.5h21l-19 -234h-530v22h59v656h-59z" />
    <glyph glyph-name="M" unicode="M" horiz-adv-x="840" 
d="M428 185l120 515h267v-19h-55v-662h55v-19h-305v19h55v625h-4l-150 -644h-125l-176 647h-4v-628h55v-19h-136v19h55v662h-55v19h270z" />
    <glyph glyph-name="N" unicode="N" horiz-adv-x="670" 
d="M645 681h-55v-681h-140l-343 647v-628h55v-19h-137v19h55v662h-55v19h276l262 -502v483h-55v19h137v-19z" />
    <glyph glyph-name="O" unicode="O" horiz-adv-x="748" 
d="M373 -10q-166 0 -249 90t-83 263q0 172 89 270t250 98t244 -93t83 -266q0 -174 -84.5 -268t-249.5 -94zM501 309v74q0 183 -18 231q-10 26 -22 42.5t-27.5 23t-27.5 8.5t-31 2q-62 0 -87 -36q-27 -39 -36 -104q-6 -58 -6 -171v-72q0 -124 10 -173q11 -61 35 -92t84 -31
q79 0 103 67q23 67 23 231z" />
    <glyph glyph-name="P" unicode="P" horiz-adv-x="634" 
d="M15 681v19h294q155 0 227 -45t72 -154q0 -118 -82 -166t-243 -48h-8v-268h125v-19h-385v19h65v662h-65zM302 681h-27v-375h21q59 0 82.5 40t23.5 134v48q0 85 -21.5 119t-78.5 34z" />
    <glyph glyph-name="Q" unicode="Q" horiz-adv-x="748" 
d="M41 339q0 175 89 273.5t250 98.5t244 -93t83 -266q0 -327 -284 -353v-7q54 -6 82.5 -29.5t43.5 -67.5q15 -43 26 -57.5t32 -14.5q37 0 45 80l22 -2q-2 -66 -41 -101t-108 -35q-68 0 -106.5 33.5t-59.5 102.5q-14 43 -22 53q-9 12 -23 12q-27 0 -74 -41l-14 16
q40 40 91 49v6q-135 14 -205.5 102.5t-70.5 240.5zM501 309v74q0 183 -18 231q-10 26 -22 42.5t-27.5 23t-27.5 8.5t-31 2q-62 0 -87 -36q-27 -39 -36 -104q-6 -58 -6 -171v-72q0 -124 10 -173q11 -61 35 -92t84 -31q79 0 103 67q23 67 23 231z" />
    <glyph glyph-name="R" unicode="R" horiz-adv-x="716" 
d="M328 354h-53v-335h65v-19h-325v19h65v662h-65v19h302q132 0 185 -13q63 -16 93.5 -47.5t30.5 -109.5q0 -83 -40.5 -120.5t-129.5 -44.5v-3q82 -11 113.5 -48.5t31.5 -123.5v-53q0 -52 6 -70q5 -18 23 -18t29 17q10 15 19 69l17 -2q-11 -86 -39.5 -114.5t-108.5 -28.5
q-83 0 -117 39.5t-34 143.5v73q0 58 -15 83t-53 25zM308 681h-33v-308h32q58 0 85 35.5t27 113.5v29q0 76 -25.5 103t-85.5 27z" />
    <glyph glyph-name="S" unicode="S" horiz-adv-x="600" 
d="M325 11q54 0 90.5 28.5t36.5 80.5q0 51 -38.5 81t-120.5 53q-76 21 -111 36.5t-66 42.5q-62 53 -62 161q0 92 65 154.5t172 62.5q53 0 111 -15q55 -16 71 -16q14 0 25 20h11l7 -202h-16q-106 192 -214 192q-61 0 -95.5 -28t-34.5 -76q0 -44 36.5 -70.5t103.5 -44.5
q79 -21 124 -38q43 -17 82 -51q20 -18 30 -39q27 -48 27 -114q0 -108 -67.5 -173.5t-177.5 -65.5q-56 0 -130 15q-73 15 -82 15q-14 0 -27 -30h-14l-10 238h17q47 -93 116 -155t141 -62z" />
    <glyph glyph-name="T" unicode="T" horiz-adv-x="683" 
d="M46 700h590l10 -251h-19q-43 132 -78 182q-35 48 -98 48h-12v-658h85v-21h-365v21h85v658h-13q-64 0 -99 -50q-35 -52 -77 -180h-19z" />
    <glyph glyph-name="U" unicode="U" horiz-adv-x="683" 
d="M271 681v-468q0 -96 33 -143t112 -47q170 0 170 206v452h-65v19h146v-19h-55v-445q0 -127 -56.5 -186.5t-192.5 -59.5q-144 0 -215.5 60t-71.5 197v434h-55v19h315v-19h-65z" />
    <glyph glyph-name="V" unicode="V" horiz-adv-x="685" 
d="M262 681l168 -500l174 500h-78v19h153v-19h-47l-241 -691h-84l-255 691h-46v19h327v-19h-71z" />
    <glyph glyph-name="W" unicode="W" horiz-adv-x="1015" 
d="M261 681l163 -479l83 288l-60 191h-57v19h310v-19h-59l149 -473l120 473h-101v19h200v-19h-66l-184 -691h-89l-148 452l-130 -452h-87l-252 691h-47v19h325v-19h-70z" />
    <glyph glyph-name="X" unicode="X" horiz-adv-x="711" 
d="M700 19v-19h-342v19h66l-149 264l-159 -264h106v-19h-207v19h67l175 294l-209 367h-54v20h337v-20h-68l135 -242l151 242h-104v20h205v-20h-66l-169 -270l227 -391h58z" />
    <glyph glyph-name="Y" unicode="Y" horiz-adv-x="641" 
d="M261 684l136 -313l142 313h-101v16h197v-16h-66l-151 -334v-331h61v-19h-317v19h61v312l-170 353h-47v16h320v-16h-65z" />
    <glyph glyph-name="Z" unicode="Z" horiz-adv-x="612" 
d="M64 700h495v-22l-296 -655h34q91 0 159 58t98 163h18l-12 -244h-512v19l299 659h-41q-89 0 -135 -38.5t-104 -160.5h-18z" />
    <glyph glyph-name="bracketleft" unicode="[" horiz-adv-x="329" 
d="M303 -142h46v-18h-288v941h288v-18h-45q-37 0 -47.5 -9t-10.5 -43v-800q0 -36 9 -44.5t48 -8.5z" />
    <glyph glyph-name="backslash" unicode="\" horiz-adv-x="351" 
d="M8 795h41l295 -892h-42z" />
    <glyph glyph-name="bracketright" unicode="]" horiz-adv-x="328" 
d="M268 -160h-288v18h46q39 0 48 8.5t9 44.5v800q0 34 -10.5 43t-47.5 9h-45v18h288v-941z" />
    <glyph glyph-name="asciicircum" unicode="^" horiz-adv-x="560" 
d="M298 664l202 -364l-37 -15l-190 336l-175 -337l-38 16l189 364h49z" />
    <glyph glyph-name="underscore" unicode="_" horiz-adv-x="500" 
d="M500 -69v-37h-500v37h500z" />
    <glyph glyph-name="grave" unicode="`" horiz-adv-x="500" 
d="M199 733l47 -10l63 -191l-11 -7l-134 111q-29 26 -29 51t17 38.5t47 7.5z" />
    <glyph glyph-name="a" unicode="a" horiz-adv-x="549" 
d="M250 235h29v77q0 97 -10 128q-11 32 -41 32q-19 0 -33 -9.5t-14 -25.5q0 -17 6 -34h25q8 -22 8 -50q0 -30 -25 -51.5t-63 -21.5q-86 0 -86 83q0 123 209 123q119 0 164.5 -40.5t45.5 -148.5v-203q0 -52 29 -52q34 0 40 103l15 -1q-4 -87 -32.5 -120.5t-95.5 -33.5
q-120 0 -138 74q-13 -39 -39.5 -56.5t-75.5 -17.5q-148 0 -148 121q0 69 54.5 96.5t175.5 27.5zM210 128v-16q0 -52 6 -67q4 -15 21 -15q15 0 29 26q13 25 13 70v93h-7q-62 0 -62 -91z" />
    <glyph glyph-name="b" unicode="b" horiz-adv-x="588" 
d="M10 750h241v-350q38 86 130 86q187 0 187 -249q0 -247 -206 -247q-52 0 -79.5 16t-37.5 53l-7 -59h-228v18h55v714h-55v18zM375 217v52q0 105 -10 139q-11 35 -39 35q-31 0 -53 -37t-22 -98v-186q0 -45 18 -74t50 -29t44 44q12 43 12 154z" />
    <glyph glyph-name="c" unicode="c" horiz-adv-x="483" 
d="M290 468q-44 0 -63 -48q-19 -47 -19 -159v-52q0 -101 22.5 -143t80.5 -42q56 0 92 38t47 93l18 -2q-19 -86 -70 -124.5t-143 -38.5q-117 0 -178.5 63t-61.5 183t70 185t197 65q87 0 135 -33.5t48 -87.5q0 -100 -84 -100q-41 0 -64.5 21.5t-23.5 61.5q0 16 5 36h33
q7 18 7 36q0 48 -48 48z" />
    <glyph glyph-name="d" unicode="d" horiz-adv-x="588" 
d="M572 0h-222l-11 70q-35 -80 -138 -80q-87 0 -134 62.5t-47 184.5q0 249 198 249q88 0 116 -49v295h-61v18h250v-732h49v-18zM213 259v-52q0 -103 11 -139q11 -35 41 -35q31 0 51.5 27t20.5 76v218q0 45 -17.5 74t-49.5 29q-33 0 -45 -44q-12 -43 -12 -154z" />
    <glyph glyph-name="e" unicode="e" horiz-adv-x="516" 
d="M273 -10q-127 0 -192.5 66t-65.5 186q0 116 71 180t186 64q227 0 218 -228h-282v-39q0 -101 25.5 -149.5t86.5 -48.5q116 0 152 124l18 -3q-20 -75 -71 -113.5t-146 -38.5zM209 327v-49h103v49q0 81 -9 111q-11 29 -38 29q-29 0 -42 -31q-14 -33 -14 -109z" />
    <glyph glyph-name="f" unicode="f" horiz-adv-x="456" 
d="M306 756q-37 0 -49.5 -27t-12.5 -93v-160h132v-18h-132v-440h122v-18h-363v18h55v440h-58v18h58v4q0 148 56.5 220.5t182.5 72.5q80 0 119.5 -31.5t39.5 -79.5q0 -43 -22.5 -65.5t-61.5 -22.5q-37 0 -58 19t-21 46q0 25 6 49h38q20 68 -31 68z" />
    <glyph glyph-name="g" unicode="g" horiz-adv-x="542" 
d="M421 528l28 17q6 31 -24 31q-43 0 -43 -66q0 -28 7 -60q76 -51 76 -130t-55 -123.5t-149 -44.5q-36 0 -81 8q-44 -29 -44 -42q0 -14 64 -14h102q227 0 227 -163q0 -90 -70.5 -140.5t-211.5 -50.5q-247 0 -247 107q0 57 77 80l60 -27q-8 -30 -8 -55q0 -86 128 -86
q76 0 119 28.5t43 72.5q0 43 -25.5 57.5t-101.5 14.5h-97q-77 0 -114 25.5t-37 68.5q0 38 24 64t90 67q-116 33 -116 152q0 77 55.5 122t160.5 45q65 0 111 -25q-6 27 -6 49q0 53 28 79.5t69 26.5q37 0 59.5 -19.5t22.5 -53.5q0 -32 -17 -49.5t-44 -17.5q-26 0 -42.5 14
t-17.5 38zM209 341v-54q0 -67 12 -91q11 -24 35 -24t34 24q10 21 10 96v49q0 79 -10 103t-33 24q-24 0 -36 -25t-12 -102z" />
    <glyph glyph-name="h" unicode="h" horiz-adv-x="616" 
d="M10 732v18h241v-366q17 50 51.5 76t97.5 26q155 0 155 -167v-301h56v-18h-283v18h41v325q0 59 -8 78q-8 17 -29 17q-33 0 -57 -42.5t-24 -101.5v-276h43v-18h-284v18h55v714h-55z" />
    <glyph glyph-name="i" unicode="i" horiz-adv-x="317" 
d="M157 545q-51 0 -74.5 25.5t-23.5 68.5q0 41 25.5 66.5t73.5 25.5q102 0 102 -90q0 -45 -25.5 -70.5t-77.5 -25.5zM6 458v18h245v-458h56v-18h-297v18h55v440h-59z" />
    <glyph glyph-name="j" unicode="j" horiz-adv-x="311" 
d="M156 545q-51 0 -74.5 25.5t-23.5 68.5q0 41 25 66.5t74 25.5q102 0 102 -90q0 -45 -25.5 -70.5t-77.5 -25.5zM0 476h251v-390q0 -168 -57.5 -252t-183.5 -84q-79 0 -119.5 31t-40.5 79q0 43 25.5 67t65.5 24q37 0 57.5 -20.5t20.5 -48.5q0 -26 -6 -50h-38
q-16 -27 -4.5 -46t42.5 -19q30 0 41 35q11 36 11 142v514h-65v18z" />
    <glyph glyph-name="k" unicode="k" horiz-adv-x="620" 
d="M615 0h-278v18h46l-113 232l-19 -5v-227h46v-18h-287v18h55v714h-59v18h245v-485l16 6l225 187h-94v18h197v-18h-70l-119 -101l173 -339h36v-18z" />
    <glyph glyph-name="l" unicode="l" horiz-adv-x="316" 
d="M6 732v18h245v-732h56v-18h-297v18h55v714h-59z" />
    <glyph glyph-name="m" unicode="m" horiz-adv-x="888" 
d="M10 458v18h241v-92q33 102 146 102q112 0 136 -108q35 108 147 108q147 0 147 -167v-301h56v-18h-277v18h35v325q0 76 -13 89q-6 6 -16 6q-30 0 -51.5 -39.5t-21.5 -98.5v-282h36v-18h-257v18h35v325q0 76 -13 89q-6 6 -16 6q-28 0 -50.5 -43t-22.5 -101v-276h36v-18
h-277v18h55v440h-55z" />
    <glyph glyph-name="n" unicode="n" horiz-adv-x="616" 
d="M12 458v18h241v-92q17 50 51.5 76t97.5 26q155 0 155 -167v-301h56v-18h-283v18h41v325q0 59 -8 78q-8 17 -29 17q-33 0 -57 -42.5t-24 -101.5v-276h43v-18h-284v18h55v440h-55z" />
    <glyph glyph-name="o" unicode="o" horiz-adv-x="543" 
d="M271 -10q-125 0 -189 63.5t-64 184.5q0 119 68.5 183.5t192.5 64.5q246 0 246 -241q0 -255 -254 -255zM333 197v85q0 99 -10 142q-11 44 -49 44q-44 0 -55 -54q-9 -45 -9 -137v-78q0 -110 7 -131q0 -1 2 -8.5t2.5 -9t3 -8t3.5 -8.5t4 -7t5 -6.5t6 -5t8.5 -4.5t10 -2
t11.5 -1q39 0 51 45q9 31 9 144z" />
    <glyph glyph-name="p" unicode="p" horiz-adv-x="588" 
d="M12 476h237v-79q39 89 138 89q87 0 134 -63t47 -187q0 -246 -206 -246q-46 0 -70.5 11.5t-40.5 37.5v-259h129v-18h-370v18h55v678h-53v18zM375 217v52q0 105 -10 139q-11 35 -39 35q-30 0 -52.5 -38.5t-22.5 -99.5v-183q0 -45 17.5 -74t49.5 -29q33 0 45 44
q12 43 12 154z" />
    <glyph glyph-name="q" unicode="q" horiz-adv-x="588" 
d="M235 -220h102v296q-38 -86 -130 -86q-187 0 -187 249q0 247 206 247q82 0 117 -63l7 53h228v-18h-55v-678h49v-18h-337v18zM213 259v-52q0 -105 10 -138q11 -36 39 -36q31 0 53 37t22 98v186q0 44 -18 73.5t-48 29.5q-35 0 -46 -44q-12 -45 -12 -154z" />
    <glyph glyph-name="r" unicode="r" horiz-adv-x="495" 
d="M344 448q-37 0 -65 -48t-28 -114v-268h71v-18h-312v18h55v440h-55v18h241v-96q12 50 49 78t85 28t77 -27t29 -74q0 -101 -89 -101q-47 0 -67.5 30.5t-5.5 82.5h36q25 51 -21 51z" />
    <glyph glyph-name="s" unicode="s" horiz-adv-x="434" 
d="M45 -10h-12v179h12q26 -85 69 -121t111 -36q102 0 102 65q0 29 -25 42q-38 22 -100 34q-81 21 -125 56t-44 106q0 78 48 124.5t128 46.5q47 0 101 -23q21 -8 29 -8q17 0 34 33h11v-153h-12q-51 130 -158 130q-45 0 -69 -16t-24 -42q0 -18 18 -36q7 -7 28 -15
q20 -10 37 -12q105 -26 155 -60q55 -37 55 -122q0 -84 -49.5 -128t-137.5 -44q-60 0 -120 29q-13 8 -19 8q-22 0 -43 -37z" />
    <glyph glyph-name="t" unicode="t" horiz-adv-x="394" 
d="M60 143v315h-55v18h55v129l186 46v-175h130v-18h-130v-337q0 -50 10 -70.5t39 -20.5q30 0 52.5 30.5t29.5 81.5l17 -2q-9 -74 -46.5 -112t-116.5 -38q-87 0 -129 34.5t-42 118.5z" />
    <glyph glyph-name="u" unicode="u" horiz-adv-x="605" 
d="M595 18v-18h-228l-11 73q-17 -42 -49 -62.5t-92 -20.5q-155 0 -155 167v301h-56v18h242v-343q0 -60 9 -79q7 -19 34 -19t46 32t19 85v306h-46v18h232v-458h55z" />
    <glyph glyph-name="v" unicode="v" horiz-adv-x="532" 
d="M41 458h-41v18h299v-18h-63l120 -332l108 332h-67v18h135v-18h-44l-148 -458h-114z" />
    <glyph glyph-name="w" unicode="w" horiz-adv-x="834" 
d="M389 458h-37v18h258v-18h-41l90 -337l89 337h-69v18h135v-18h-42l-120 -458h-137l-87 307l-94 -307h-134l-148 458h-45v18h303v-18h-60l92 -340l72 234z" />
    <glyph glyph-name="x" unicode="x" horiz-adv-x="595" 
d="M268 458l99 -163l118 163h-72v18h149v-18h-52l-130 -184l163 -256h52v-18h-334v18h71l-110 180l-114 -180h66v-18h-157v18h66l127 200l-152 240h-58v18h338v-18h-70z" />
    <glyph glyph-name="y" unicode="y" horiz-adv-x="532" 
d="M46 458h-41v18h290v-18h-54l109 -332l116 332h-67v18h141v-18h-50l-187 -539q-32 -92 -73 -130.5t-101 -38.5q-58 0 -92.5 26.5t-34.5 69.5q0 41 21.5 63.5t58.5 22.5q83 0 83 -69q0 -15 -6 -36h-35q-9 -23 -2.5 -38t27.5 -15q41 0 72.5 39.5t61.5 124.5l22 62h-88z" />
    <glyph glyph-name="z" unicode="z" horiz-adv-x="520" 
d="M55 476h420v-18l-237 -440h13q84 0 132 44t75 143h14l-16 -205h-420v15l241 443h-11q-101 0 -140.5 -33t-70.5 -141h-13z" />
    <glyph glyph-name="braceleft" unicode="{" horiz-adv-x="377" 
d="M24 308v16q94 1 94 117q0 39 -14 112q-15 71 -15 90q0 137 187 137q59 0 92 -13l-5 -16q-20 7 -40 7q-54 0 -54 -65q0 -27 14 -119q14 -93 14 -124q0 -68 -38 -97t-132 -34v-2q91 -7 130.5 -37t39.5 -100q0 -28 -14 -126q-14 -100 -14 -129q0 -61 59 -61q20 0 44 8l5 -16
q-36 -16 -86 -16q-202 0 -202 145q0 15 15 92q14 78 14 115q0 115 -94 116z" />
    <glyph glyph-name="bar" unicode="|" horiz-adv-x="319" 
d="M179 -127h-39v922h39v-922z" />
    <glyph glyph-name="braceright" unicode="}" horiz-adv-x="377" 
d="M353 324v-16q-94 -1 -94 -116q0 -40 15 -115q14 -79 14 -92q0 -145 -202 -145q-50 0 -86 16l5 16q24 -8 47 -8q56 0 56 67q0 23 -14 123q-14 98 -14 126q0 70 39.5 100t130.5 37v2q-94 5 -132 34t-38 97q0 31 14 124q14 92 14 119q0 65 -54 65q-20 0 -40 -7l-5 16
q33 13 92 13q187 0 187 -137q0 -17 -14 -90q-15 -71 -15 -112q0 -116 94 -117z" />
    <glyph glyph-name="asciitilde" unicode="~" 
d="M179 398q29 0 117 -20t114 -20q29 0 42.5 9t25.5 34l12 -3q-25 -96 -49 -130q-24 -31 -65 -31q-42 0 -121 21q-82 20 -111 20q-50 0 -72 -43l-12 5q19 81 46 119.5t73 38.5z" />
    <glyph glyph-name="uni00A0" unicode="&#xa0;" horiz-adv-x="180" 
 />
    <glyph glyph-name="exclamdown" unicode="&#xa1;" horiz-adv-x="377" 
d="M186 335q-35 0 -55 21t-20 55t19.5 54.5t55.5 20.5q37 0 57 -21t20 -57q0 -35 -20.5 -54t-56.5 -19zM178 212v86h22v-85q0 -84 35 -203t35 -164q0 -81 -76 -81q-36 0 -58.5 20t-22.5 61q0 44 33 162q32 120 32 204z" />
    <glyph glyph-name="cent" unicode="&#xa2;" horiz-adv-x="515" 
d="M312 511q-40 0 -60 -44q-20 -46 -20 -145v-47q0 -90 22.5 -128.5t77.5 -38.5q52 0 85 34.5t43 85.5l19 -4q-15 -68 -57.5 -108.5t-142.5 -40.5q-36 0 -57 4l-23 -105l-28 6l23 105q-140 41 -140 211q0 112 66 172t185 60h9l24 107l28 -5l-23 -104q63 -7 98 -38t35 -78
q0 -85 -75 -85t-75 75q0 15 5 33h31q6 18 6 37q0 18 -17 29.5t-39 11.5z" />
    <glyph glyph-name="sterling" unicode="&#xa3;" horiz-adv-x="581" 
d="M125 298h-89v28h77q-37 61 -52 109q-11 36 -11 68q0 97 70.5 152.5t186.5 55.5q110 0 168.5 -42t58.5 -111q0 -41 -23 -67t-63 -26t-65.5 21t-25.5 52q0 28 8 50h31q6 16 6 34q0 70 -73 70q-53 0 -68.5 -33.5t-15.5 -128.5v-204h176v-28h-176v-30q0 -49 -18.5 -81
t-73.5 -86l3 -5q94 64 146 64q34 0 96 -32q62 -33 83 -33t33 20q11 19 16 72l21 -1q-4 -94 -41 -149.5t-89 -55.5q-51 0 -106 27l-152 72q-6 -43 -30 -67t-56 -24q-54 0 -54 44q0 31 30.5 52.5t77.5 22.5q22 43 22 87t-28 103z" />
    <glyph glyph-name="currency" unicode="&#xa4;" 
d="M55 147l72 89q-28 40 -28 99q0 57 29 101l-77 89l19 18l90 -71q46 31 105 31t97 -30l90 69l17 -16l-75 -85q28 -41 28 -96t-30 -102l75 -98l-18 -17l-94 77q-38 -29 -95 -29q-59 0 -98 27l-89 -74zM261 474q-59 0 -91 -37t-32 -98t30.5 -96.5t90.5 -35.5t92 37t32 98
q0 60 -31.5 96t-90.5 36z" />
    <glyph glyph-name="yen" unicode="&#xa5;" horiz-adv-x="609" 
d="M251 684l136 -293l142 293h-101v16h197v-16h-66l-148 -307h117v-28h-120v-73h120v-28h-120v-229h61v-19h-317v19h61v229h-114v28h114v73h-114v28h100l-156 307h-47v16h320v-16h-65z" />
    <glyph glyph-name="brokenbar" unicode="&#xa6;" horiz-adv-x="319" 
d="M179 412h-39v383h39v-383zM179 -127h-39v437h39v-437z" />
    <glyph glyph-name="section" unicode="&#xa7;" horiz-adv-x="699" 
d="M70 415q0 138 84 217t205 79q111 0 166 -37.5t55 -105.5q0 -41 -23 -67t-63 -26t-65.5 21t-25.5 52q0 28 8 50l36 8q6 16 6 36q0 50 -79 50q-64 0 -89.5 -50t-29.5 -152q168 -35 261 -102q103 -75 103 -219q0 -138 -84 -217t-204 -79q-112 0 -167 37.5t-55 105.5
q0 41 23 67t63 26t65.5 -21t25.5 -51q0 -29 -8 -51l-36 -8q-6 -16 -6 -36q0 -50 79 -50q63 0 89 48.5t29 153.5q-168 35 -261 102q-102 74 -102 219zM434 118v37q0 127 -41 199t-138 111v-36q0 -127 40.5 -200t138.5 -111z" />
    <glyph glyph-name="dieresis" unicode="&#xa8;" horiz-adv-x="500" 
d="M116 565q-18 23 -18 53q0 32 20 52.5t54 20.5q35 0 55 -18.5t20 -53.5q0 -36 -20 -56t-56 -20q-37 0 -55 22zM309 565q-18 23 -18 53q0 32 20 52.5t54 20.5q35 0 55 -18.5t20 -53.5q0 -36 -20 -56t-56 -20q-37 0 -55 22z" />
    <glyph glyph-name="copyright" unicode="&#xa9;" horiz-adv-x="781" 
d="M397 636q148 0 236 -85.5t88 -233.5q0 -149 -91.5 -238.5t-244.5 -89.5t-239 86.5t-86 234.5q0 146 94.5 236t242.5 90zM389 12q142 0 224.5 81.5t82.5 222.5q0 140 -83 219t-220 79t-222 -83t-85 -222q0 -141 80.5 -219t222.5 -78zM531 390h-14q-16 47 -44.5 76.5
t-60.5 29.5t-46 -35q-14 -36 -14 -140q0 -107 13 -143q14 -38 50 -38q35 0 63.5 29.5t45.5 77.5h12l-4 -119h-10q-2 2 -3 6q-4 9 -11 9l-35 -11q-33 -10 -66 -10q-95 0 -147 49.5t-52 144.5t54.5 146.5t148.5 51.5q29 0 60 -10q30 -10 35 -10q4 0 7 5q2 2 3 5t3 5h9z" />
    <glyph glyph-name="ordfeminine" unicode="&#xaa;" horiz-adv-x="454" 
d="M205 568h22v55q0 65 -8 89q-8 21 -31 21q-36 0 -36 -25q0 -11 4 -20h20q6 -18 6 -37q0 -20 -19.5 -35.5t-48.5 -15.5q-67 0 -67 59q0 88 162 88q92 0 127 -29t35 -106v-140q0 -37 22 -37q11 0 19 14q7 12 10 56l13 -2q-2 -61 -24 -85t-74 -24q-92 0 -107 53
q-9 -28 -29.5 -40.5t-58.5 -12.5q-115 0 -115 86q0 49 42 68.5t136 19.5zM178 437q5 -11 16 -11q13 0 23 18.5t10 46.5v62h-5q-25 0 -36.5 -14t-11.5 -47v-11q0 -35 4 -44z" />
    <glyph glyph-name="guillemotleft" unicode="&#xab;" horiz-adv-x="494" 
d="M63 263l177 138l9 -7l-86 -163l85 -175l-9 -7l-159 130q-30 25 -30 45q0 19 13 39zM239 263l177 138l9 -7l-86 -163l85 -175l-9 -7l-159 130q-30 25 -30 45q0 19 13 39z" />
    <glyph glyph-name="logicalnot" unicode="&#xac;" 
d="M492 167h-35v134h-419v33h454v-167z" />
    <glyph glyph-name="uni00AD" unicode="&#xad;" horiz-adv-x="340" 
d="M299 278h-252v30h252v-30z" />
    <glyph glyph-name="registered" unicode="&#xae;" horiz-adv-x="459" 
d="M233 662q84 0 135 -49.5t51 -132.5q0 -84 -53 -136t-140 -52t-136.5 50t-49.5 134q0 83 54 134.5t139 51.5zM229 314q76 0 120.5 44t44.5 120q0 75 -45.5 119t-118.5 44t-118.5 -45.5t-45.5 -120.5q0 -76 43 -118.5t120 -42.5zM226 482h-3v-87h8v-8h-99v8h22v176h-22v8
h104q41 0 58.5 -9.5t17.5 -35.5q0 -43 -64 -47v-1q38 -2 52 -12.5t14 -34.5v-23q0 -16 9 -16q14 0 18 34l8 -1q-3 -27 -14.5 -38t-39.5 -11q-49 0 -49 37v29q0 19 -4 25.5t-16 6.5zM228 571h-5v-79h3q15 0 20.5 9t5.5 31t-4.5 30.5t-19.5 8.5z" />
    <glyph glyph-name="macron" unicode="&#xaf;" horiz-adv-x="500" 
d="M386 552h-272v95h272v-95z" />
    <glyph glyph-name="degree" unicode="&#xb0;" horiz-adv-x="329" 
d="M163 506q-59 0 -91 33t-32 87t34 87.5t93 33.5q58 0 90 -31.5t32 -85.5q0 -55 -33.5 -89.5t-92.5 -34.5zM100 694q-24 -26 -24 -67q0 -42 23.5 -67t64.5 -25q42 0 66 25.5t24 67.5q0 41 -24.5 66t-65.5 25q-42 0 -64 -25z" />
    <glyph glyph-name="plusminus" unicode="&#xb1;" 
d="M492 334v-33h-212v-189h-38v189h-204v33h204v176h38v-176h212zM492 33v-33h-454v33h454z" />
    <glyph glyph-name="uni00B2" unicode="&#xb2;" horiz-adv-x="417" 
d="M50 724q0 43 39.5 71t108.5 28q73 0 115 -28t42 -81q0 -56 -42 -93t-168 -105l-38 -20h160q41 0 59 17.5t27 57.5h15l-7 -177h-304v84l64 51q62 49 85.5 90.5t23.5 94.5q0 52 -9.5 71.5t-36.5 19.5q-28 0 -41.5 -18t-2.5 -44h20q5 -17 5 -33q0 -19 -15.5 -32.5
t-41.5 -13.5q-27 0 -42.5 16.5t-15.5 43.5z" />
    <glyph glyph-name="uni00B3" unicode="&#xb3;" horiz-adv-x="422" 
d="M203 819q146 0 146 -96q0 -80 -128 -100v-1q150 -10 150 -116q0 -53 -49 -86.5t-133 -33.5q-140 0 -140 88q0 25 16 43t42 18q25 0 41 -12.5t16 -30.5q0 -16 -6 -33h-15q-6 -12 -6 -25t14.5 -22.5t35.5 -9.5q34 0 47 25t13 78q0 47 -11 69t-36 34q-25 -4 -54 -8l-2 18
q53 5 69 24t16 71q0 50 -8 71q-9 20 -32 20q-43 0 -43 -36q0 -13 4 -22h16q6 -17 6 -32q0 -17 -17 -30.5t-42 -13.5q-26 0 -40.5 16.5t-14.5 41.5q0 41 38.5 66t106.5 25z" />
    <glyph glyph-name="acute" unicode="&#xb4;" horiz-adv-x="500" 
d="M174 525l-11 7l63 191l47 10q30 6 47 -7.5t17 -38.5t-29 -51z" />
    <glyph glyph-name="uni00B5" unicode="&#xb5;" horiz-adv-x="673" 
d="M80 492l188 9v-343q0 -95 16 -111q10 -8 24 -8q31 0 54.5 40t23.5 102v311l177 9v-416q0 -43 29 -43q34 0 40 103l15 -1q-4 -86 -32 -120t-91 -34q-117 0 -138 99q-16 -45 -49 -72.5t-72 -27.5q-43 0 -70.5 18t-50.5 67l-4 -3l58 -142q8 -19 12 -29q3 -8 7 -16.5t4 -9.5
q1 -8 6 -18q7 -20 7 -38q0 -19 -20 -32.5t-43 -8.5l-91 19v696z" />
    <glyph glyph-name="paragraph" unicode="&#xb6;" horiz-adv-x="628" 
d="M377 -82v257h-19q-136 0 -209.5 68t-73.5 190q0 123 77.5 195t218.5 72h227v-19h-65v-694q0 -237 -248 -237q-86 0 -127 36t-41 88q0 45 26 71t66 26q36 0 56.5 -20.5t20.5 -48.5q0 -26 -6 -50h-29q-21 -37 -10 -60t51 -23q85 0 85 149zM407 681v-774q0 -90 -38 -125
q135 30 135 214v685h-97z" />
    <glyph glyph-name="periodcentered" unicode="&#xb7;" horiz-adv-x="300" 
d="M157 235q-42 0 -64.5 24.5t-22.5 63.5q0 37 23 61.5t63 24.5q42 0 65.5 -21.5t23.5 -62.5q0 -43 -22.5 -66.5t-65.5 -23.5z" />
    <glyph glyph-name="cedilla" unicode="&#xb8;" horiz-adv-x="500" 
d="M197 -65l47 78h26l-40 -68q21 3 33 3q105 0 105 -89q0 -44 -35 -74t-101 -30q-45 0 -74 18.5t-29 43.5q0 49 43 49q34 0 46 -38l-26 -20q0 -37 35 -37t35 72v13q0 20 -0.5 30t-3 22t-9.5 17t-19 5q-15 0 -30 -4z" />
    <glyph glyph-name="uni00B9" unicode="&#xb9;" horiz-adv-x="425" 
d="M160 413v378l-72 -8l-2 19l144 19h71v-408h68v-19h-278v19h69z" />
    <glyph glyph-name="ordmasculine" unicode="&#xba;" horiz-adv-x="489" 
d="M244 394q-98 0 -148 45.5t-50 131.5t52 131t151 45q194 0 194 -172q0 -181 -199 -181zM295 541v60q0 65 -9 97q-9 31 -40 31q-32 0 -42 -31q-10 -30 -10 -100v-56q0 -71 10 -100q9 -31 41 -31t41 28q9 27 9 102z" />
    <glyph glyph-name="guillemotright" unicode="&#xbb;" horiz-adv-x="494" 
d="M255 187l-177 -138l-8 7l85 163l-84 174l8 8l159 -130q30 -26 30 -44q0 -20 -13 -40zM431 187l-177 -138l-8 7l85 163l-84 174l8 8l159 -130q30 -26 30 -44q0 -20 -13 -40z" />
    <glyph glyph-name="onequarter" unicode="&#xbc;" horiz-adv-x="820" 
d="M118 293v378l-72 -8l-2 19l144 19h71v-408h68v-19h-278v19h69zM274 0h-35l321 700h34zM758 0h-235v19h58v79h-168v21l175 301h127v-298h62v52h19v-118h-19v42h-62v-79h43v-19zM581 360l-139 -238h139v238z" />
    <glyph glyph-name="onehalf" unicode="&#xbd;" horiz-adv-x="820" 
d="M107 293v378l-72 -8l-2 19l144 19h71v-408h68v-19h-278v19h69zM263 0h-35l321 700h34zM469 330q0 43 39.5 71t108.5 28q73 0 115 -28t42 -81q0 -56 -42 -93t-168 -105l-38 -20h160q41 0 59 17.5t27 57.5h15l-7 -177h-304v84l64 51q62 49 85.5 90.5t23.5 94.5
q0 52 -9.5 71.5t-36.5 19.5q-28 0 -41.5 -18t-2.5 -44h20q5 -17 5 -33q0 -19 -15.5 -32.5t-41.5 -13.5q-27 0 -42.5 16.5t-15.5 43.5z" />
    <glyph glyph-name="threequarters" unicode="&#xbe;" horiz-adv-x="820" 
d="M289 0h-35l321 700h34zM182 699q146 0 146 -96q0 -80 -128 -100v-1q150 -10 150 -116q0 -53 -49 -86.5t-133 -33.5q-140 0 -140 88q0 25 16 43t42 18q25 0 41 -12.5t16 -30.5q0 -16 -6 -33h-15q-6 -12 -6 -25t14.5 -22.5t35.5 -9.5q34 0 47 25t13 78q0 47 -11 69t-36 34
q-25 -4 -54 -8l-2 18q53 5 69 24t16 71q0 50 -8 71q-9 20 -32 20q-43 0 -43 -36q0 -13 4 -22h16q6 -16 6 -32q0 -17 -17 -30.5t-42 -13.5q-26 0 -40.5 16.5t-14.5 41.5q0 41 38.5 66t106.5 25zM773 0h-235v19h58v79h-168v21l175 301h127v-298h62v52h19v-118h-19v42h-62v-79
h43v-19zM596 360l-139 -238h139v238z" />
    <glyph glyph-name="questiondown" unicode="&#xbf;" horiz-adv-x="580" 
d="M336 486q36 0 55 -20.5t19 -54.5t-20 -55t-55 -21q-36 0 -56.5 19t-20.5 54q0 36 20.5 57t57.5 21zM526 -82q0 -67 -60 -110t-167 -43q-110 0 -169.5 42.5t-59.5 123.5q0 51 24.5 92.5t75.5 87.5l151 134v58h25v-210q0 -17 -11 -28l-62 -63q-29 -29 -40 -54.5t-11 -66.5
q0 -97 90 -97q39 0 61 21.5t22 45.5q0 21 -6 37h-32q-8 22 -8 51q0 30 25.5 51t65.5 21t63 -26t23 -67z" />
    <glyph glyph-name="Agrave" unicode="&#xc0;" horiz-adv-x="694" 
d="M281 901l48 4l115 -162l-8 -10l-159 65q-44 18 -44 58q0 18 12 30.5t36 14.5zM361 19h71l-73 216h-198l-77 -216h75v-19h-153v19h47l255 687h82l252 -687h46v-19h-327v19zM351 257l-87 262l-94 -262h181z" />
    <glyph glyph-name="Aacute" unicode="&#xc1;" horiz-adv-x="694" 
d="M269 733l-8 10l115 162l48 -4q24 -2 36 -14.5t12 -30.5q0 -40 -44 -58zM361 19h71l-73 216h-198l-77 -216h75v-19h-153v19h47l255 687h82l252 -687h46v-19h-327v19zM351 257l-87 262l-94 -262h181z" />
    <glyph glyph-name="Acircumflex" unicode="&#xc2;" horiz-adv-x="694" 
d="M205 733l-8 10l106 148q28 16 55 16q48 0 70 -40l74 -124l-9 -10l-142 68zM361 19h71l-73 216h-198l-77 -216h75v-19h-153v19h47l255 687h82l252 -687h46v-19h-327v19zM351 257l-87 262l-94 -262h181z" />
    <glyph glyph-name="Atilde" unicode="&#xc3;" horiz-adv-x="694" 
d="M509 895l13 -4q-19 -79 -42 -109q-22 -30 -56 -30q-32 0 -86 20t-72 20q-38 0 -55 -41l-12 4q22 69 38 97q14 24 29.5 32.5t41.5 8.5q24 0 76 -20q51 -20 67 -20q45 0 58 42zM361 19h71l-73 216h-198l-77 -216h75v-19h-153v19h47l255 687h82l252 -687h46v-19h-327v19z
M351 257l-87 262l-94 -262h181z" />
    <glyph glyph-name="Adieresis" unicode="&#xc4;" horiz-adv-x="694" 
d="M196 768q-18 23 -18 53q0 32 20 52.5t54 20.5q35 0 55 -18.5t20 -53.5q0 -36 -20 -56t-56 -20q-37 0 -55 22zM389 768q-18 23 -18 53q0 32 20 52.5t54 20.5q35 0 55 -18.5t20 -53.5q0 -36 -20 -56t-56 -20q-37 0 -55 22zM361 19h71l-73 216h-198l-77 -216h75v-19h-153v19
h47l255 687h82l252 -687h46v-19h-327v19zM351 257l-87 262l-94 -262h181z" />
    <glyph glyph-name="Aring" unicode="&#xc5;" horiz-adv-x="694" 
d="M347 726q-48 0 -74 25.5t-26 69.5t27 70.5t75 26.5t74 -25t26 -69t-26.5 -71t-75.5 -27zM277 823q0 -73 72 -73q34 0 52.5 20t18.5 52t-18.5 52t-53.5 20t-53 -19.5t-18 -51.5zM361 19h71l-73 216h-198l-77 -216h75v-19h-153v19h47l255 687h82l252 -687h46v-19h-327v19z
M351 257l-87 262l-94 -262h181z" />
    <glyph glyph-name="AE" unicode="&#xc6;" horiz-adv-x="1033" 
d="M452 678h-76v22h574l10 -198h-18q-43 101 -87.5 138.5t-126.5 37.5h-44v-316h34q46 0 78.5 35t45.5 96h15v-296h-17q-18 75 -48.5 107t-83.5 32h-24v-314h38q90 0 155 54t90 142h20l-8 -218h-549v22h59v317h-210l-194 -320h75v-19h-154v19h47zM489 678h-6l-192 -315h198
v315z" />
    <glyph glyph-name="Ccedilla" unicode="&#xc7;" horiz-adv-x="690" 
d="M400 691q-155 0 -155 -299v-79q0 -144 41.5 -223.5t120.5 -79.5q111 0 202 214h18l-7 -223h-11q-6 12 -11 16t-15 4q-9 0 -67 -14q-60 -15 -111 -16l-29 -50q21 3 33 3q105 0 105 -89q0 -44 -35 -74t-101 -30q-45 0 -74 18.5t-29 43.5q0 49 43 49q34 0 46 -38l-26 -20
q0 -37 35 -37t35 72v13q0 20 -0.5 30t-3 22t-9.5 17t-19 5q-15 0 -30 -4l-3 9l35 59q-164 2 -250.5 90.5t-86.5 262.5t92.5 271t252.5 97q62 0 120 -15q57 -16 68 -16q15 0 26 20h11l8 -217h-18q-47 105 -94.5 156.5t-106.5 51.5z" />
    <glyph glyph-name="Egrave" unicode="&#xc8;" horiz-adv-x="624" 
d="M227 901l48 4l115 -162l-8 -10l-159 65q-44 18 -44 58q0 18 12 30.5t36 14.5zM21 678v22h520l10 -198h-18q-42 102 -88.5 139t-134.5 37h-35v-309h34q46 0 78.5 35t45.5 96h15v-296h-17q-18 75 -48.5 107t-83.5 32h-24v-321h38q90 0 155 54t90 142h20l-8 -218h-549v22h59
v656h-59z" />
    <glyph glyph-name="Eacute" unicode="&#xc9;" horiz-adv-x="624" 
d="M215 733l-8 10l115 162l48 -4q24 -2 36 -14.5t12 -30.5q0 -40 -44 -58zM21 678v22h520l10 -198h-18q-42 102 -88.5 139t-134.5 37h-35v-309h34q46 0 78.5 35t45.5 96h15v-296h-17q-18 75 -48.5 107t-83.5 32h-24v-321h38q90 0 155 54t90 142h20l-8 -218h-549v22h59v656
h-59z" />
    <glyph glyph-name="Ecircumflex" unicode="&#xca;" horiz-adv-x="624" 
d="M151 733l-8 10l106 148q28 16 55 16q48 0 70 -40l74 -124l-9 -10l-142 68zM21 678v22h520l10 -198h-18q-42 102 -88.5 139t-134.5 37h-35v-309h34q46 0 78.5 35t45.5 96h15v-296h-17q-18 75 -48.5 107t-83.5 32h-24v-321h38q90 0 155 54t90 142h20l-8 -218h-549v22h59
v656h-59z" />
    <glyph glyph-name="Edieresis" unicode="&#xcb;" horiz-adv-x="624" 
d="M142 768q-18 23 -18 53q0 32 20 52.5t54 20.5q35 0 55 -18.5t20 -53.5q0 -36 -20 -56t-56 -20q-37 0 -55 22zM335 768q-18 23 -18 53q0 32 20 52.5t54 20.5q35 0 55 -18.5t20 -53.5q0 -36 -20 -56t-56 -20q-37 0 -55 22zM21 678v22h520l10 -198h-18q-42 102 -88.5 139
t-134.5 37h-35v-309h34q46 0 78.5 35t45.5 96h15v-296h-17q-18 75 -48.5 107t-83.5 32h-24v-321h38q90 0 155 54t90 142h20l-8 -218h-549v22h59v656h-59z" />
    <glyph glyph-name="Igrave" unicode="&#xcc;" horiz-adv-x="355" 
d="M109 901l48 4l115 -162l-8 -10l-159 65q-44 18 -44 58q0 18 12 30.5t36 14.5zM25 681v19h305v-19h-55v-662h55v-19h-305v19h55v662h-55z" />
    <glyph glyph-name="Iacute" unicode="&#xcd;" horiz-adv-x="355" 
d="M97 733l-8 10l115 162l48 -4q24 -2 36 -14.5t12 -30.5q0 -40 -44 -58zM25 681v19h305v-19h-55v-662h55v-19h-305v19h55v662h-55z" />
    <glyph glyph-name="Icircumflex" unicode="&#xce;" horiz-adv-x="355" 
d="M33 733l-8 10l106 148q28 16 55 16q48 0 70 -40l74 -124l-9 -10l-142 68zM25 681v19h305v-19h-55v-662h55v-19h-305v19h55v662h-55z" />
    <glyph glyph-name="Idieresis" unicode="&#xcf;" horiz-adv-x="355" 
d="M24 768q-18 23 -18 53q0 32 20 52.5t54 20.5q35 0 55 -18.5t20 -53.5q0 -36 -20 -56t-56 -20q-37 0 -55 22zM217 768q-18 23 -18 53q0 32 20 52.5t54 20.5q35 0 55 -18.5t20 -53.5q0 -36 -20 -56t-56 -20q-37 0 -55 22zM25 681v19h305v-19h-55v-662h55v-19h-305v19h55
v662h-55z" />
    <glyph glyph-name="Eth" unicode="&#xd0;" horiz-adv-x="763" 
d="M95 359h-76v26h76v296h-66v19h309q195 0 289.5 -80t94.5 -258q0 -196 -105.5 -279t-304.5 -83h-283v19h66v340zM290 359v-340h38q101 0 144.5 71.5t43.5 239.5v58q0 224 -86 271q-40 22 -116 22h-24v-296h129v-26h-129z" />
    <glyph glyph-name="Ntilde" unicode="&#xd1;" horiz-adv-x="670" 
d="M502 895l13 -4q-19 -79 -42 -109t-56 -30q-32 0 -86 20t-72 20q-38 0 -55 -41l-12 4q22 69 38 97q14 24 29.5 32.5t41.5 8.5q24 0 76 -20q51 -20 67 -20q44 0 58 42zM645 681h-55v-681h-140l-343 647v-628h55v-19h-137v19h55v662h-55v19h276l262 -502v483h-55v19h137v-19
z" />
    <glyph glyph-name="Ograve" unicode="&#xd2;" horiz-adv-x="748" 
d="M308 901l48 4l115 -162l-8 -10l-159 65q-44 18 -44 58q0 18 12 30.5t36 14.5zM373 -10q-166 0 -249 90t-83 263q0 172 89 270t250 98t244 -93t83 -266q0 -174 -84.5 -268t-249.5 -94zM501 309v74q0 183 -18 231q-10 26 -22 42.5t-27.5 23t-27.5 8.5t-31 2q-62 0 -87 -36
q-27 -39 -36 -104q-6 -58 -6 -171v-72q0 -124 10 -173q11 -61 35 -92t84 -31q79 0 103 67q23 67 23 231z" />
    <glyph glyph-name="Oacute" unicode="&#xd3;" horiz-adv-x="748" 
d="M296 733l-8 10l115 162l48 -4q24 -2 36 -14.5t12 -30.5q0 -40 -44 -58zM373 -10q-166 0 -249 90t-83 263q0 172 89 270t250 98t244 -93t83 -266q0 -174 -84.5 -268t-249.5 -94zM501 309v74q0 183 -18 231q-10 26 -22 42.5t-27.5 23t-27.5 8.5t-31 2q-62 0 -87 -36
q-27 -39 -36 -104q-6 -58 -6 -171v-72q0 -124 10 -173q11 -61 35 -92t84 -31q79 0 103 67q23 67 23 231z" />
    <glyph glyph-name="Ocircumflex" unicode="&#xd4;" horiz-adv-x="748" 
d="M232 733l-8 10l106 148q28 16 55 16q48 0 70 -40l74 -124l-9 -10l-142 68zM373 -10q-166 0 -249 90t-83 263q0 172 89 270t250 98t244 -93t83 -266q0 -174 -84.5 -268t-249.5 -94zM501 309v74q0 183 -18 231q-10 26 -22 42.5t-27.5 23t-27.5 8.5t-31 2q-62 0 -87 -36
q-27 -39 -36 -104q-6 -58 -6 -171v-72q0 -124 10 -173q11 -61 35 -92t84 -31q79 0 103 67q23 67 23 231z" />
    <glyph glyph-name="Otilde" unicode="&#xd5;" horiz-adv-x="748" 
d="M536 895l13 -4q-19 -79 -42 -109t-56 -30q-32 0 -86 20t-72 20q-38 0 -55 -41l-12 4q22 69 38 97q14 24 29.5 32.5t41.5 8.5q24 0 76 -20q51 -20 67 -20q44 0 58 42zM373 -10q-166 0 -249 90t-83 263q0 172 89 270t250 98t244 -93t83 -266q0 -174 -84.5 -268t-249.5 -94z
M501 309v74q0 183 -18 231q-10 26 -22 42.5t-27.5 23t-27.5 8.5t-31 2q-62 0 -87 -36q-27 -39 -36 -104q-6 -58 -6 -171v-72q0 -124 10 -173q11 -61 35 -92t84 -31q79 0 103 67q23 67 23 231z" />
    <glyph glyph-name="Odieresis" unicode="&#xd6;" horiz-adv-x="748" 
d="M223 768q-18 23 -18 53q0 32 20 52.5t54 20.5q35 0 55 -18.5t20 -53.5q0 -36 -20 -56t-56 -20q-37 0 -55 22zM416 768q-18 23 -18 53q0 32 20 52.5t54 20.5q35 0 55 -18.5t20 -53.5q0 -36 -20 -56t-56 -20q-37 0 -55 22zM373 -10q-166 0 -249 90t-83 263q0 172 89 270
t250 98t244 -93t83 -266q0 -174 -84.5 -268t-249.5 -94zM501 309v74q0 183 -18 231q-10 26 -22 42.5t-27.5 23t-27.5 8.5t-31 2q-62 0 -87 -36q-27 -39 -36 -104q-6 -58 -6 -171v-72q0 -124 10 -173q11 -61 35 -92t84 -31q79 0 103 67q23 67 23 231z" />
    <glyph glyph-name="multiply" unicode="&#xd7;" 
d="M413 488l24 -24l-150 -149l148 -148l-24 -23l-147 147l-148 -148l-24 24l148 148l-147 148l23 24l148 -148z" />
    <glyph glyph-name="Oslash" unicode="&#xd8;" horiz-adv-x="748" 
d="M41 339q0 176 89 274t253 98q60 0 105 -13l27 71l25 -10l-26 -69q193 -67 193 -338q0 -174 -85 -268t-251 -94q-61 0 -117 14l-29 -78l-25 10l29 76q-188 68 -188 327zM246 379v-72q0 -151 16 -206l206 544q-27 45 -93 45q-106 0 -121 -128q-8 -75 -8 -183zM501 309v74
q0 167 -17 227l-207 -546q29 -53 103 -53t98 67q23 67 23 231z" />
    <glyph glyph-name="Ugrave" unicode="&#xd9;" horiz-adv-x="683" 
d="M302 901l48 4l115 -162l-8 -10l-159 65q-44 18 -44 58q0 18 12 30.5t36 14.5zM271 681v-468q0 -96 33 -143t112 -47q170 0 170 206v452h-65v19h146v-19h-55v-445q0 -127 -56.5 -186.5t-192.5 -59.5q-144 0 -215.5 60t-71.5 197v434h-55v19h315v-19h-65z" />
    <glyph glyph-name="Uacute" unicode="&#xda;" horiz-adv-x="683" 
d="M290 733l-8 10l115 162l48 -4q24 -2 36 -14.5t12 -30.5q0 -40 -44 -58zM271 681v-468q0 -96 33 -143t112 -47q170 0 170 206v452h-65v19h146v-19h-55v-445q0 -127 -56.5 -186.5t-192.5 -59.5q-144 0 -215.5 60t-71.5 197v434h-55v19h315v-19h-65z" />
    <glyph glyph-name="Ucircumflex" unicode="&#xdb;" horiz-adv-x="683" 
d="M226 733l-8 10l106 148q28 16 55 16q48 0 70 -40l74 -124l-9 -10l-142 68zM271 681v-468q0 -96 33 -143t112 -47q170 0 170 206v452h-65v19h146v-19h-55v-445q0 -127 -56.5 -186.5t-192.5 -59.5q-144 0 -215.5 60t-71.5 197v434h-55v19h315v-19h-65z" />
    <glyph glyph-name="Udieresis" unicode="&#xdc;" horiz-adv-x="683" 
d="M217 768q-18 23 -18 53q0 32 20 52.5t54 20.5q35 0 55 -18.5t20 -53.5q0 -36 -20 -56t-56 -20q-37 0 -55 22zM410 768q-18 23 -18 53q0 32 20 52.5t54 20.5q35 0 55 -18.5t20 -53.5q0 -36 -20 -56t-56 -20q-37 0 -55 22zM271 681v-468q0 -96 33 -143t112 -47
q170 0 170 206v452h-65v19h146v-19h-55v-445q0 -127 -56.5 -186.5t-192.5 -59.5q-144 0 -215.5 60t-71.5 197v434h-55v19h315v-19h-65z" />
    <glyph glyph-name="Yacute" unicode="&#xdd;" horiz-adv-x="641" 
d="M269 733l-8 10l115 162l48 -4q24 -2 36 -14.5t12 -30.5q0 -40 -44 -58zM261 684l136 -313l142 313h-101v16h197v-16h-66l-151 -334v-331h61v-19h-317v19h61v312l-170 353h-47v16h320v-16h-65z" />
    <glyph glyph-name="Thorn" unicode="&#xde;" horiz-adv-x="634" 
d="M400 681h-125v-115h34q155 0 227 -45t72 -154q0 -118 -82 -166t-243 -48h-8v-134h125v-19h-385v19h65v662h-65v19h385v-19zM302 547h-27v-375h21q59 0 82.5 40t23.5 134v48q0 85 -21.5 119t-78.5 34z" />
    <glyph glyph-name="germandbls" unicode="&#xdf;" horiz-adv-x="674" 
d="M319 -10h-12v179h12q49 -157 161 -157q92 0 92 66q0 53 -89 85q-36 13 -53 20t-43.5 24.5t-42.5 40.5q-26 38 -26 85q0 83 64 145l52 51q63 61 63 115q0 107 -133 107q-63 0 -88 -36.5t-25 -110.5v-604h-262v18h76v451q0 160 73.5 232t214.5 72q89 0 131 -34t42 -90
q0 -67 -58 -123q-59 -55 -59 -95q0 -44 65 -67q60 -21 120 -60q65 -44 65 -143q0 -73 -49.5 -122t-114.5 -49q-62 0 -114 29q-21 12 -31 12q-22 0 -31 -41z" />
    <glyph glyph-name="agrave" unicode="&#xe0;" horiz-adv-x="549" 
d="M216 748l47 -10l63 -191l-11 -7l-134 111q-29 26 -29 51t17 38.5t47 7.5zM250 235h29v77q0 97 -10 128q-11 32 -41 32q-19 0 -33 -9.5t-14 -25.5q0 -17 6 -34h25q8 -22 8 -50q0 -30 -25 -51.5t-63 -21.5q-86 0 -86 83q0 123 209 123q119 0 164.5 -40.5t45.5 -148.5v-203
q0 -52 29 -52q34 0 40 103l15 -1q-4 -87 -32.5 -120.5t-95.5 -33.5q-120 0 -138 74q-13 -39 -39.5 -56.5t-75.5 -17.5q-148 0 -148 121q0 69 54.5 96.5t175.5 27.5zM210 128v-16q0 -52 6 -67q4 -15 21 -15q15 0 29 26q13 25 13 70v93h-7q-62 0 -62 -91z" />
    <glyph glyph-name="aacute" unicode="&#xe1;" horiz-adv-x="549" 
d="M199 540l-11 7l63 191l47 10q30 6 47 -7.5t17 -38.5t-29 -51zM250 235h29v77q0 97 -10 128q-11 32 -41 32q-19 0 -33 -9.5t-14 -25.5q0 -17 6 -34h25q8 -22 8 -50q0 -30 -25 -51.5t-63 -21.5q-86 0 -86 83q0 123 209 123q119 0 164.5 -40.5t45.5 -148.5v-203
q0 -52 29 -52q34 0 40 103l15 -1q-4 -87 -32.5 -120.5t-95.5 -33.5q-120 0 -138 74q-13 -39 -39.5 -56.5t-75.5 -17.5q-148 0 -148 121q0 69 54.5 96.5t175.5 27.5zM210 128v-16q0 -52 6 -67q4 -15 21 -15q15 0 29 26q13 25 13 70v93h-7q-62 0 -62 -91z" />
    <glyph glyph-name="acircumflex" unicode="&#xe2;" horiz-adv-x="549" 
d="M133 523l-12 9l89 190q29 16 59 16q45 0 64 -48l61 -159l-11 -7l-125 104zM250 235h29v77q0 97 -10 128q-11 32 -41 32q-19 0 -33 -9.5t-14 -25.5q0 -17 6 -34h25q8 -22 8 -50q0 -30 -25 -51.5t-63 -21.5q-86 0 -86 83q0 123 209 123q119 0 164.5 -40.5t45.5 -148.5v-203
q0 -52 29 -52q34 0 40 103l15 -1q-4 -87 -32.5 -120.5t-95.5 -33.5q-120 0 -138 74q-13 -39 -39.5 -56.5t-75.5 -17.5q-148 0 -148 121q0 69 54.5 96.5t175.5 27.5zM210 128v-16q0 -52 6 -67q4 -15 21 -15q15 0 29 26q13 25 13 70v93h-7q-62 0 -62 -91z" />
    <glyph glyph-name="atilde" unicode="&#xe3;" horiz-adv-x="549" 
d="M420 714l13 -4q-37 -147 -107 -147q-33 0 -87 20t-72 20q-38 0 -55 -41l-12 4q25 79 50 112.5t67 33.5q26 0 78 -20q51 -20 67 -20q44 0 58 42zM250 235h29v77q0 97 -10 128q-11 32 -41 32q-19 0 -33 -9.5t-14 -25.5q0 -17 6 -34h25q8 -22 8 -50q0 -30 -25 -51.5
t-63 -21.5q-86 0 -86 83q0 123 209 123q119 0 164.5 -40.5t45.5 -148.5v-203q0 -52 29 -52q34 0 40 103l15 -1q-4 -87 -32.5 -120.5t-95.5 -33.5q-120 0 -138 74q-13 -39 -39.5 -56.5t-75.5 -17.5q-148 0 -148 121q0 69 54.5 96.5t175.5 27.5zM210 128v-16q0 -52 6 -67
q4 -15 21 -15q15 0 29 26q13 25 13 70v93h-7q-62 0 -62 -91z" />
    <glyph glyph-name="adieresis" unicode="&#xe4;" horiz-adv-x="549" 
d="M104 580q-18 22 -18 53q0 32 20 52.5t54 20.5q35 0 55 -18.5t20 -53.5q0 -36 -20 -56t-56 -20q-37 0 -55 22zM297 580q-18 22 -18 53q0 32 20 52.5t54 20.5q35 0 55 -18.5t20 -53.5q0 -36 -20 -56t-56 -20q-37 0 -55 22zM250 235h29v77q0 97 -10 128q-11 32 -41 32
q-19 0 -33 -9.5t-14 -25.5q0 -17 6 -34h25q8 -22 8 -50q0 -30 -25 -51.5t-63 -21.5q-86 0 -86 83q0 123 209 123q119 0 164.5 -40.5t45.5 -148.5v-203q0 -52 29 -52q34 0 40 103l15 -1q-4 -87 -32.5 -120.5t-95.5 -33.5q-120 0 -138 74q-13 -39 -39.5 -56.5t-75.5 -17.5
q-148 0 -148 121q0 69 54.5 96.5t175.5 27.5zM210 128v-16q0 -52 6 -67q4 -15 21 -15q15 0 29 26q13 25 13 70v93h-7q-62 0 -62 -91z" />
    <glyph glyph-name="aring" unicode="&#xe5;" horiz-adv-x="549" 
d="M256 535q-48 0 -74 25.5t-26 69.5t27 70.5t75 26.5t74 -25t26 -69q0 -45 -27 -71.5t-75 -26.5zM186 632q0 -73 72 -73q34 0 52.5 20t18.5 52t-18.5 52t-53.5 20t-53 -19.5t-18 -51.5zM250 235h29v77q0 97 -10 128q-11 32 -41 32q-19 0 -33 -9.5t-14 -25.5q0 -17 6 -34h25
q8 -22 8 -50q0 -30 -25 -51.5t-63 -21.5q-86 0 -86 83q0 123 209 123q119 0 164.5 -40.5t45.5 -148.5v-203q0 -52 29 -52q34 0 40 103l15 -1q-4 -87 -32.5 -120.5t-95.5 -33.5q-120 0 -138 74q-13 -39 -39.5 -56.5t-75.5 -17.5q-148 0 -148 121q0 69 54.5 96.5t175.5 27.5z
M210 128v-16q0 -52 6 -67q4 -15 21 -15q15 0 29 26q13 25 13 70v93h-7q-62 0 -62 -91z" />
    <glyph glyph-name="ae" unicode="&#xe6;" horiz-adv-x="772" 
d="M250 235h29v77q0 97 -10 128q-11 32 -41 32q-19 0 -33 -9.5t-14 -25.5q0 -17 6 -34h25q8 -22 8 -50q0 -30 -25 -51.5t-63 -21.5q-86 0 -86 83q0 60 51 91.5t140 31.5q109 0 152 -63q47 63 152 63q214 0 205 -228h-282v-39q0 -101 25.5 -149.5t86.5 -48.5q116 0 152 124
l18 -3q-20 -75 -71 -113.5t-146 -38.5q-139 0 -201 80q-35 -80 -155 -80q-153 0 -153 121q0 69 54.5 96.5t175.5 27.5zM465 327v-49h103v49q0 81 -9 111q-11 29 -38 29q-29 0 -42 -31q-14 -33 -14 -109zM210 128v-16q0 -50 10 -66q9 -16 28 -16q20 0 39 15.5t27 43.5
q-32 53 -35 129v1h-7q-62 0 -62 -91z" />
    <glyph glyph-name="ccedilla" unicode="&#xe7;" horiz-adv-x="483" 
d="M290 468q-44 0 -63 -48q-19 -47 -19 -159v-52q0 -101 22.5 -143t80.5 -42q56 0 92 38t47 93l18 -2q-19 -81 -62.5 -118.5t-124.5 -43.5l-27 -46q21 3 33 3q105 0 105 -89q0 -44 -35 -74t-101 -30q-45 0 -74 18.5t-29 43.5q0 49 43 49q34 0 46 -38l-26 -20q0 -37 35 -37
t35 72v13q0 20 -0.5 30t-3 22t-9.5 17t-19 5q-15 0 -30 -4l-3 9l33 55q-117 1 -178 63.5t-61 182.5t70 185t197 65q87 0 135 -33.5t48 -87.5q0 -100 -84 -100q-41 0 -64.5 21.5t-23.5 61.5q0 16 5 36h33q7 18 7 36q0 48 -48 48z" />
    <glyph glyph-name="egrave" unicode="&#xe8;" horiz-adv-x="516" 
d="M226 748l47 -10l63 -191l-11 -7l-134 111q-29 26 -29 51t17 38.5t47 7.5zM273 -10q-127 0 -192.5 66t-65.5 186q0 116 71 180t186 64q227 0 218 -228h-282v-39q0 -101 25.5 -149.5t86.5 -48.5q116 0 152 124l18 -3q-20 -75 -71 -113.5t-146 -38.5zM209 327v-49h103v49
q0 81 -9 111q-11 29 -38 29q-29 0 -42 -31q-14 -33 -14 -109z" />
    <glyph glyph-name="eacute" unicode="&#xe9;" horiz-adv-x="516" 
d="M209 540l-11 7l63 191l47 10q30 6 47 -7.5t17 -38.5t-29 -51zM273 -10q-127 0 -192.5 66t-65.5 186q0 116 71 180t186 64q227 0 218 -228h-282v-39q0 -101 25.5 -149.5t86.5 -48.5q116 0 152 124l18 -3q-20 -75 -71 -113.5t-146 -38.5zM209 278h103v49q0 81 -9 111
q-11 29 -38 29q-29 0 -42 -31q-14 -33 -14 -109v-49z" />
    <glyph glyph-name="ecircumflex" unicode="&#xea;" horiz-adv-x="516" 
d="M143 523l-12 9l89 190q29 16 59 16q45 0 64 -48l61 -159l-11 -7l-125 104zM273 -10q-127 0 -192.5 66t-65.5 186q0 116 71 180t186 64q227 0 218 -228h-282v-39q0 -101 25.5 -149.5t86.5 -48.5q116 0 152 124l18 -3q-20 -75 -71 -113.5t-146 -38.5zM209 327v-49h103v49
q0 81 -9 111q-11 29 -38 29q-29 0 -42 -31q-14 -33 -14 -109z" />
    <glyph glyph-name="edieresis" unicode="&#xeb;" horiz-adv-x="516" 
d="M114 580q-18 22 -18 53q0 32 20 52.5t54 20.5q35 0 55 -18.5t20 -53.5q0 -36 -20 -56t-56 -20q-37 0 -55 22zM307 580q-18 22 -18 53q0 32 20 52.5t54 20.5q35 0 55 -18.5t20 -53.5q0 -36 -20 -56t-56 -20q-37 0 -55 22zM273 -10q-127 0 -192.5 66t-65.5 186
q0 116 71 180t186 64q227 0 218 -228h-282v-39q0 -101 25.5 -149.5t86.5 -48.5q116 0 152 124l18 -3q-20 -75 -71 -113.5t-146 -38.5zM209 327v-49h103v49q0 81 -9 111q-11 29 -38 29q-29 0 -42 -31q-14 -33 -14 -109z" />
    <glyph glyph-name="igrave" unicode="&#xec;" horiz-adv-x="317" 
d="M100 748l47 -10l63 -191l-11 -7l-134 111q-29 26 -29 51t17 38.5t47 7.5zM6 458v18h245v-458h56v-18h-297v18h55v440h-59z" />
    <glyph glyph-name="iacute" unicode="&#xed;" horiz-adv-x="317" 
d="M96 540l-11 7l63 191l47 10q30 6 47 -7.5t17 -38.5t-29 -51zM6 458v18h245v-458h56v-18h-297v18h55v440h-59z" />
    <glyph glyph-name="icircumflex" unicode="&#xee;" horiz-adv-x="317" 
d="M16 523l-12 9l89 190q29 16 59 16q44 0 64 -48l61 -159l-11 -7l-125 104zM6 458v18h245v-458h56v-18h-297v18h55v440h-59z" />
    <glyph glyph-name="idieresis" unicode="&#xef;" horiz-adv-x="317" 
d="M-6 580q-18 22 -18 53q0 32 20 52.5t54 20.5q35 0 55 -18.5t20 -53.5q0 -36 -20 -56t-56 -20q-37 0 -55 22zM187 580q-18 22 -18 53q0 32 20 52.5t54 20.5q35 0 55 -18.5t20 -53.5q0 -36 -20 -56t-56 -20q-37 0 -55 22zM6 458v18h245v-458h56v-18h-297v18h55v440h-59z
" />
    <glyph glyph-name="eth" unicode="&#xf0;" horiz-adv-x="560" 
d="M307 649l-112 -74l-8 25l106 69q-66 81 -204 80l2 16q169 13 276 -47l106 70l8 -25l-91 -60q150 -105 150 -371q0 -189 -74 -272q-63 -70 -188 -70q-128 0 -193 63.5t-65 184.5q0 120 61 188t168 68q83 0 111 -63q-7 147 -53 218zM344 197v85q0 94 -12 140t-52 46
q-41 0 -54 -46q-13 -45 -13 -145v-78q0 -102 13 -145q12 -46 53 -46t53 42q12 40 12 147z" />
    <glyph glyph-name="ntilde" unicode="&#xf1;" horiz-adv-x="616" 
d="M468 714l13 -4q-37 -147 -107 -147q-33 0 -87 20t-72 20q-38 0 -55 -41l-12 4q25 79 50 112.5t67 33.5q26 0 78 -20q51 -20 67 -20q44 0 58 42zM10 458v18h241v-92q17 50 51.5 76t97.5 26q155 0 155 -167v-301h56v-18h-283v18h41v325q0 59 -8 78q-8 17 -29 17
q-33 0 -57 -42.5t-24 -101.5v-276h43v-18h-284v18h55v440h-55z" />
    <glyph glyph-name="ograve" unicode="&#xf2;" horiz-adv-x="543" 
d="M233 748l47 -10l63 -191l-11 -7l-134 111q-29 26 -29 51t17 38.5t47 7.5zM271 -10q-125 0 -189 63.5t-64 184.5q0 119 68.5 183.5t192.5 64.5q246 0 246 -241q0 -255 -254 -255zM333 197v85q0 99 -10 142q-11 44 -49 44q-44 0 -55 -54q-9 -45 -9 -137v-78q0 -110 7 -131
q0 -1 2 -8.5t2.5 -9t3 -8t3.5 -8.5t4 -7t5 -6.5t6 -5t8.5 -4.5t10 -2t11.5 -1q39 0 51 45q9 31 9 144z" />
    <glyph glyph-name="oacute" unicode="&#xf3;" horiz-adv-x="543" 
d="M216 540l-11 7l63 191l47 10q30 6 47 -7.5t17 -38.5t-29 -51zM271 -10q-125 0 -189 63.5t-64 184.5q0 119 68.5 183.5t192.5 64.5q246 0 246 -241q0 -255 -254 -255zM333 197v85q0 99 -10 142q-11 44 -49 44q-44 0 -55 -54q-9 -45 -9 -137v-78q0 -110 7 -131q0 -1 2 -8.5
t2.5 -9t3 -8t3.5 -8.5t4 -7t5 -6.5t6 -5t8.5 -4.5t10 -2t11.5 -1q39 0 51 45q9 31 9 144z" />
    <glyph glyph-name="ocircumflex" unicode="&#xf4;" horiz-adv-x="543" 
d="M150 523l-12 9l89 190q29 16 59 16q44 0 64 -48l61 -159l-11 -7l-125 104zM271 -10q-125 0 -189 63.5t-64 184.5q0 119 68.5 183.5t192.5 64.5q246 0 246 -241q0 -255 -254 -255zM333 197v85q0 99 -10 142q-11 44 -49 44q-44 0 -55 -54q-9 -45 -9 -137v-78q0 -110 7 -131
q0 -1 2 -8.5t2.5 -9t3 -8t3.5 -8.5t4 -7t5 -6.5t6 -5t8.5 -4.5t10 -2t11.5 -1q39 0 51 45q9 31 9 144z" />
    <glyph glyph-name="otilde" unicode="&#xf5;" horiz-adv-x="543" 
d="M437 714l13 -4q-38 -147 -108 -147q-32 0 -86 20t-72 20q-38 0 -55 -41l-12 4q25 79 50 112.5t67 33.5q26 0 78 -20q51 -20 67 -20q45 0 58 42zM271 -10q-125 0 -189 63.5t-64 184.5q0 119 68.5 183.5t192.5 64.5q246 0 246 -241q0 -255 -254 -255zM333 197v85
q0 99 -10 142q-11 44 -49 44q-44 0 -55 -54q-9 -45 -9 -137v-78q0 -110 7 -131q0 -1 2 -8.5t2.5 -9t3 -8t3.5 -8.5t4 -7t5 -6.5t6 -5t8.5 -4.5t10 -2t11.5 -1q39 0 51 45q9 31 9 144z" />
    <glyph glyph-name="odieresis" unicode="&#xf6;" horiz-adv-x="543" 
d="M121 580q-18 22 -18 53q0 32 20 52.5t54 20.5q35 0 55 -18.5t20 -53.5q0 -36 -20 -56t-56 -20q-37 0 -55 22zM314 580q-18 22 -18 53q0 32 20 52.5t54 20.5q35 0 55 -18.5t20 -53.5q0 -36 -20 -56t-56 -20q-37 0 -55 22zM271 -10q-125 0 -189 63.5t-64 184.5
q0 119 68.5 183.5t192.5 64.5q246 0 246 -241q0 -255 -254 -255zM333 197v85q0 99 -10 142q-11 44 -49 44q-44 0 -55 -54q-9 -45 -9 -137v-78q0 -110 7 -131q0 -1 2 -8.5t2.5 -9t3 -8t3.5 -8.5t4 -7t5 -6.5t6 -5t8.5 -4.5t10 -2t11.5 -1q39 0 51 45q9 31 9 144z" />
    <glyph glyph-name="divide" unicode="&#xf7;" 
d="M227 406q-14 17 -14 40q0 25 14.5 40t40.5 15q57 0 57 -53q0 -27 -15 -42.5t-42 -15.5q-28 0 -41 16zM492 334v-33h-454v33h454zM227 152q-14 17 -14 40q0 25 14.5 40t40.5 15q57 0 57 -53q0 -27 -15 -42.5t-42 -15.5q-28 0 -41 16z" />
    <glyph glyph-name="oslash" unicode="&#xf8;" horiz-adv-x="546" 
d="M15 236q0 123 67.5 186.5t196.5 63.5q28 0 65 -5l26 69l22 -8l-25 -65q164 -38 164 -232q0 -255 -258 -255q-48 0 -87 9l-28 -74l-22 8l27 72q-148 48 -148 231zM208 277v-78q0 -58 1 -72l115 302q-16 39 -48 39q-42 0 -55 -46q-13 -45 -13 -145zM339 197v85q0 65 -5 107
l-119 -314q12 -67 60 -67q40 0 52 42q12 40 12 147z" />
    <glyph glyph-name="ugrave" unicode="&#xf9;" horiz-adv-x="605" 
d="M242 748l47 -10l63 -191l-11 -7l-134 111q-29 26 -29 51t17 38.5t47 7.5zM595 18v-18h-228l-11 73q-17 -42 -49 -62.5t-92 -20.5q-155 0 -155 167v301h-56v18h242v-343q0 -60 9 -79q7 -19 34 -19t46 32t19 85v306h-46v18h232v-458h55z" />
    <glyph glyph-name="uacute" unicode="&#xfa;" horiz-adv-x="605" 
d="M234 540l-11 7l63 191l47 10q30 6 47 -7.5t17 -38.5t-29 -51zM595 18v-18h-228l-11 73q-17 -42 -49 -62.5t-92 -20.5q-155 0 -155 167v301h-56v18h242v-343q0 -60 9 -79q7 -19 34 -19t46 32t19 85v306h-46v18h232v-458h55z" />
    <glyph glyph-name="ucircumflex" unicode="&#xfb;" horiz-adv-x="605" 
d="M168 523l-12 9l89 190q29 16 59 16q44 0 64 -48l61 -159l-11 -7l-125 104zM595 18v-18h-228l-11 73q-17 -42 -49 -62.5t-92 -20.5q-155 0 -155 167v301h-56v18h242v-343q0 -60 9 -79q7 -19 34 -19t46 32t19 85v306h-46v18h232v-458h55z" />
    <glyph glyph-name="udieresis" unicode="&#xfc;" horiz-adv-x="605" 
d="M139 580q-18 22 -18 53q0 32 20 52.5t54 20.5q35 0 55 -18.5t20 -53.5q0 -36 -20 -56t-56 -20q-37 0 -55 22zM332 580q-18 22 -18 53q0 32 20 52.5t54 20.5q35 0 55 -18.5t20 -53.5q0 -36 -20 -56t-56 -20q-37 0 -55 22zM595 18v-18h-228l-11 73q-17 -42 -49 -62.5
t-92 -20.5q-155 0 -155 167v301h-56v18h242v-343q0 -60 9 -79q7 -19 34 -19t46 32t19 85v306h-46v18h232v-458h55z" />
    <glyph glyph-name="yacute" unicode="&#xfd;" horiz-adv-x="532" 
d="M242 540l-11 7l63 191l47 10q30 6 47 -7.5t17 -38.5t-29 -51zM46 458h-41v18h290v-18h-54l109 -332l116 332h-67v18h141v-18h-50l-187 -539q-32 -92 -73 -130.5t-101 -38.5q-58 0 -92.5 26.5t-34.5 69.5q0 41 21.5 63.5t58.5 22.5q83 0 83 -69q0 -15 -6 -36h-35
q-9 -23 -2.5 -38t27.5 -15q41 0 72.5 39.5t61.5 124.5l22 62h-88z" />
    <glyph glyph-name="thorn" unicode="&#xfe;" horiz-adv-x="588" 
d="M10 -220h55v952h-49v18h235v-350q38 86 130 86q187 0 187 -249q0 -247 -206 -247q-46 0 -70.5 11.5t-40.5 37.5v-259h129v-18h-370v18zM375 217v52q0 105 -10 139q-11 35 -39 35q-31 0 -53 -37t-22 -98v-186q0 -45 18 -74t50 -29t44 44q12 43 12 154z" />
    </font>
</defs>
</svg>
